<?xml version="1.0" encoding="iso-8859-1"?>
<!-- Generator: Adobe Illustrator 18.1.1, SVG Export Plug-In . SVG Version: 6.00 Build 0)  -->
<svg version="1.1" id="Capa_1" xmlns="http://www.w3.org/2000/svg" xmlns:xlink="http://www.w3.org/1999/xlink" x="0px" y="0px"
	 viewBox="0 0 57.383 57.383" style="enable-background:new 0 0 57.383 57.383;" xml:space="preserve">
<g>
	<path style="fill:#010002;" d="M44.864,24.958c-2.181,0-3.955,1.775-3.955,3.955c-0.001,2.182,1.774,3.957,3.955,3.957
		c2.182,0,3.956-1.775,3.956-3.957C48.82,26.732,47.046,24.958,44.864,24.958z M44.864,32.256c-1.843,0-3.343-1.5-3.343-3.344
		c0-1.843,1.5-3.342,3.343-3.342c1.844,0,3.344,1.5,3.344,3.342C48.208,30.756,46.708,32.256,44.864,32.256z M44.864,26.08
		c-1.562,0-2.832,1.271-2.832,2.832c0,1.563,1.27,2.834,2.832,2.834s2.833-1.271,2.833-2.834
		C47.697,27.351,46.426,26.08,44.864,26.08z M44.864,31.439c-1.393,0-2.526-1.133-2.526-2.527c-0.001-1.393,1.133-2.526,2.526-2.526
		c1.394,0,2.526,1.133,2.526,2.526C47.39,30.307,46.257,31.439,44.864,31.439z M7.402,31.608v4.451c0,0.34,0.273,0.613,0.612,0.613
		s0.613-0.273,0.613-0.613v-4.422c0.484-0.068,0.989-0.351,1.258-0.744l6.048-8.862c0.076-0.111,0.316-0.238,0.451-0.238h19.6
		v14.368c0,0.676,0.549,1.226,1.225,1.226h14.802c0.676,0,1.226-0.551,1.226-1.226V10.155c0-0.675-0.55-1.225-1.226-1.225h-2.565
		v-2.9c0-0.345-0.28-0.625-0.625-0.625H19.333c-0.345,0-0.625,0.28-0.625,0.625s0.28,0.625,0.625,0.625h28.861V8.93L10.536,8.931
		l0.001-0.346c0-0.627-0.429-1.146-0.977-1.216L9.555,7.323h0.109c0.676,0,1.225-0.526,1.225-1.173S10.34,4.976,9.664,4.976H6.099
		c-0.675,0-1.225,0.527-1.225,1.174c0,0.647,0.55,1.173,1.225,1.173h0.229l0.051,0.052c-0.647,0-1.173,0.549-1.173,1.225v0.407
		H1.225C0.549,9.007,0,9.557,0,10.231v10.336c0,0.463,0.186,1.078,0.442,1.462l5.906,8.856C6.577,31.225,6.983,31.496,7.402,31.608z
		 M1.225,20.567V10.232h3.981c0.675,0,1.225-0.549,1.225-1.225L6.379,8.6c0.648,0,1.175-0.55,1.175-1.277
		c0-0.501-0.303-0.93-0.733-1.12h2.24C8.632,6.395,8.332,6.832,8.328,7.358c-0.001,0.348,0.13,0.681,0.36,0.913
		C8.861,8.445,9.079,8.552,9.311,8.58c0,0.002,0,0.003,0,0.006v0.346c0,0.676,0.549,1.225,1.225,1.225H52.01l0.001,26.005H37.208
		v-14.37c0-0.675-0.55-1.225-1.225-1.225h-19.6c-0.542,0-1.158,0.325-1.464,0.773l-6.046,8.86c-0.076,0.113-0.318,0.24-0.452,0.24
		H7.808c-0.132,0-0.368-0.127-0.442-0.238l-5.905-8.854C1.342,21.17,1.225,20.784,1.225,20.567z M56.158,10.079h-2.297v10.259h2.297
		c0.675,0,1.225-0.55,1.225-1.225v-7.809C57.383,10.629,56.833,10.079,56.158,10.079z M56.158,19.113h-1.072v-7.809h1.072V19.113z
		 M52.236,39.74H4.132c-0.896,0-1.625,0.729-1.625,1.625v2.5c0,0.896,0.729,1.625,1.625,1.625h48.104
		c0.896,0,1.625-0.729,1.625-1.625v-2.5C53.861,40.469,53.132,39.74,52.236,39.74z M52.611,43.865c0,0.207-0.168,0.375-0.375,0.375
		H4.132c-0.207,0-0.375-0.168-0.375-0.375v-2.5c0-0.207,0.168-0.375,0.375-0.375h48.104c0.207,0,0.375,0.168,0.375,0.375V43.865z
		 M12.708,18.083h34.103c0.896,0,1.625-0.729,1.625-1.625v-2.5c0.001-0.896-0.728-1.625-1.624-1.625H12.708
		c-0.896,0-1.625,0.729-1.625,1.625v2.5C11.083,17.354,11.812,18.083,12.708,18.083z M12.333,13.958
		c0-0.207,0.168-0.375,0.375-0.375h34.103c0.207,0,0.375,0.168,0.375,0.375v2.5c0,0.207-0.168,0.375-0.375,0.375H12.708
		c-0.207,0-0.375-0.168-0.375-0.375V13.958z M47.819,46.532H8.708c-0.472,0-0.879,0.197-1.117,0.543
		c-0.239,0.346-0.281,0.797-0.114,1.238l1.043,2.754c0.284,0.75,1.136,1.34,1.938,1.34h36.238c0.835,0,1.646-0.637,1.844-1.449
		l0.649-2.682c0.11-0.444,0.022-0.887-0.24-1.221C48.687,46.723,48.276,46.532,47.819,46.532z M47.326,50.66
		c-0.063,0.26-0.364,0.496-0.629,0.496H10.458c-0.292,0-0.666-0.258-0.768-0.531l-1.043-2.754c-0.014-0.037-0.019-0.064-0.021-0.08
		c0.017-0.006,0.043-0.01,0.082-0.01h39.111c0.069,0,0.124,0.018,0.146,0.045c0.022,0.029,0.026,0.086,0.01,0.154L47.326,50.66z"/>
</g>
<g>
</g>
<g>
</g>
<g>
</g>
<g>
</g>
<g>
</g>
<g>
</g>
<g>
</g>
<g>
</g>
<g>
</g>
<g>
</g>
<g>
</g>
<g>
</g>
<g>
</g>
<g>
</g>
<g>
</g>
</svg>
